<svg width="80" height="84" viewBox="0 0 80 84" fill="none" xmlns="http://www.w3.org/2000/svg"><path d="M65.7 36.8H14.4a3.3 3.3 0 0 1-3.3-3.3v-9.8c0-1.8 1.5-3.2 3.3-3.2h51.3c1.8 0 3.2 1.4 3.2 3.2v9.8c0 1.8-1.4 3.3-3.2 3.3ZM14.4 23c-.4 0-.8.3-.8.7v9.8c0 .4.4.8.8.8h51.3c.4 0 .7-.4.7-.8v-9.8c0-.4-.3-.7-.7-.7H14.4Z" fill="#fff"/><path d="M58.5 70.2h-37a6.3 6.3 0 0 1-6.2-6.2V35.5a1.3 1.3 0 0 1 2.5 0V64c0 2 1.7 3.7 3.7 3.7h37c2 0 3.8-1.7 3.8-3.7V35.5a1.3 1.3 0 0 1 2.5 0V64c0 3.4-2.8 6.2-6.3 6.2Z" fill="#fff"/><path d="M40 70.2c-.7 0-1.2-.5-1.2-1.2V35.5a1.3 1.3 0 0 1 2.5 0V69c0 .7-.6 1.2-1.3 1.2ZM24.4 23a8 8 0 0 1 7.7-14.2c6 3.2 9.2 12.2 9.3 12.6l-2.3.8s-3-8.5-8.2-11.2a5.6 5.6 0 0 0-5.3 9.8L24.4 23Z" fill="#fff"/><path d="m55.6 23-1.2-2.2a5.5 5.5 0 0 0 2.3-7.6A5.5 5.5 0 0 0 49 11c-5 2.7-8 11.1-8.1 11.2l-2.4-.8C38.8 21 42 12 48 8.8A8 8 0 0 1 59 12a8 8 0 0 1-3.3 11ZM63.5 53.5h-47a1.3 1.3 0 0 1 0-2.5h47a1.3 1.3 0 0 1 0 2.5Z" fill="#fff"/></svg>